<svg xmlns="http://www.w3.org/2000/svg" version="1.1" xmlns:xlink="http://www.w3.org/1999/xlink" xmlns:svgjs="http://svgjs.dev/svgjs" width="2000" height="1025" viewBox="0 0 2000 1025"><g transform="matrix(1,0,0,1,-1.2112696095522324,-0.4585866361701392)"><svg viewBox="0 0 396 203" data-background-color="#ffffff" preserveAspectRatio="xMidYMid meet" height="1025" width="2000" xmlns="http://www.w3.org/2000/svg" xmlns:xlink="http://www.w3.org/1999/xlink"><g id="tight-bounds" transform="matrix(1,0,0,1,0.24008861730862918,0.09082252404149926)"><svg viewBox="0 0 395.52 202.81824620249932" height="202.81824620249932" width="395.52"><g><svg viewBox="0 0 395.52 202.81824620249932" height="202.81824620249932" width="395.52"><g><svg viewBox="0 0 395.52 202.81824620249932" height="202.81824620249932" width="395.52"><g><svg viewBox="0 0 395.52 202.81824620249932" height="202.81824620249932" width="395.52"><g><svg viewBox="0 0 395.52 202.81824620249932" height="202.81824620249932" width="395.52"><path d="M394.594 43.501C392.735 22.448 387.435 16.596 387.435 16.596 371.165-5.088 350.86-0.415 332.619 2.701 300.414 2.827 268.339 7.459 236.208 9.943 168.767 10.322 100.749 4.09 33.643 19.459 27.339 24.174-6.54 20.385 1.121 46.195 3.129 56.932 10.456 68.848 10.232 78.7 11.236 80.427 12.631 76.469 13.226 78.953 15.309 85.648 18.711 82.49 21.501 86.448 17.614 97.016 20.403 105.816 23.062 115.037 18.377 117.437 12.371 116.3 9.675 124.258 9.396 130.026 7.89 128.932 6.235 128.679 5.026 128.51 2.59 129.142 2.999 130.953 4.394 137.142-1.594 140.721 2.162 146.784-0.422 153.352 3.948 159.037 3.353 166.152 3.278 167.584 3.687 168.805 4.338 169.142 7.22 170.952 3.018 174.489 3.464 178.321 33.029 204.51 65.104 186.405 95.394 198.447 103.259 190.026 97.346 201.436 100.489 199.668 102.943 197.605 104.728 206.152 107.499 201.31 107.927 199.92 107.276 196.636 108.8 197.268 109.6 197.605 110.307 197.52 110.418 195.584 110.586 192.678 109.117 194.489 108.726 192.973 112.947 185.31 111.906 203.541 115.866 202.784 115.68 200.552 114.528 197.352 116.889 197.773 119.232 194.573 119.306 191.92 121.389 199.12 121.463 200.678 121.835 201.773 122.43 202.531 128.938 194.699 135.409 205.31 142.233 201.773 146.417 197.899 150.433 203.878 154.672 202.405 156.16 201.226 157.666 199.12 159.098 202.657 176.632 203.415 195.319 200.257 211.943 202.784 256.364 198.068 303.835 204.72 350.674 198.489 361.719 196.089 373.192 192.678 383.958 189.942 383.958 189.942 392.679 182.447 392.679 148.763S394.538 119.289 394.817 92.469C395.096 65.648 396.398 64.553 394.538 43.501Z" opacity="1" fill="#7a26c1" data-fill-palette-color="tertiary"></path><g transform="matrix(1,0,0,1,55.76832,26.230666666666668)"><svg width="283.98335999999995" viewBox="4.25 -34.599998474121094 65.3499984741211 34.599998474121094" height="150.356912869166" data-palette-color="#ffffff"><path d="M8.1 0L4.25 0 4.25-34.6 11.2-34.6 21-5.35 30.8-34.6 37.75-34.6 37.75 0 33.9 0 33.9-30.5 33.2-30.5 23.15-1.25 18.85-1.25 8.8-30.5 8.1-30.5 8.1 0ZM50.1-15.1L50.1 0 46.25 0 46.25-34.6 50.1-34.6 50.1-18.5 55.8-18.7 64.65-34.6 69.05-34.6 59.15-17.2 69.6 0 65.05 0 55.85-15.3 50.1-15.1Z" opacity="1" transform="matrix(1,0,0,1,0,0)" fill="#ffffff" class="undefined-text-0" data-fill-palette-color="quaternary" id="text-0"></path></svg></g></svg></g></svg></g></svg></g><g></g></svg></g><defs></defs></svg><rect width="395.52" height="202.81824620249932" fill="none" stroke="none" visibility="hidden"></rect></g></svg></g></svg>